# xmcd
#
# Track frame offsets:
#	150
#	12019
#	24065
#	36699
#	52135
#	64639
#	85237
#	104696
#	117507
#	136469
#	158104
#	174997
#	184756
#	196850
#	207498
#
# Disc length: 3152 seconds
# Revision: 0
# Processed by: cddbd v1.5.2PL0 Copyright (c) Steve Scherf et al.
# Submitted via: dBpowerAMP V12.0
#
DISCID=d00c4e0f
DTITLE=Chuck Berry - Back Home
DYEAR=1970
DGENRE=Blues
TTITLE0=Tulane
TTITLE1=Have Mercy Judge
TTITLE2=Instrumental
TTITLE3=Christmas
TTITLE4=Gun (Instrumental)
TTITLE5=I'm A Rocker
TTITLE6=Flyin' Home
TTITLE7=Fish and Ships
TTITLE8=Some People
TTITLE9=Untitled Instrumental [Bonus]
TTITLE10=My Ding-A-Ling [Bonus]
TTITLE11=Gun (Instrumental - Fast) [Bonus]
TTITLE12=Gun (Instrumental - Slow) [Bonus]
TTITLE13=That's None of Your Business [Bonus]
TTITLE14=My Pad (Poem) [Bonus]
EXTD=
EXTT0=
EXTT1=
EXTT2=
EXTT3=
EXTT4=
EXTT5=
EXTT6=
EXTT7=
EXTT8=
EXTT9=
EXTT10=
EXTT11=
EXTT12=
EXTT13=
EXTT14=
PLAYORDER=
